<?xml version="1.0" encoding="UTF-8"?>
<svg id="Layer_1" xmlns="http://www.w3.org/2000/svg" version="1.1" viewBox="0 0 1920 1080">
  <!-- Generator: Adobe Illustrator 29.6.1, SVG Export Plug-In . SVG Version: 2.1.1 Build 9)  -->
  <defs>
    <style>
      .st0 {
        fill: #25aae1;
      }
    </style>
  </defs>
  <path class="st0" d="M643.06,441.76c-21.29,0-38.62-18.82-38.62-41.96,0-10.23,3.46-20.09,9.75-27.78,11.21-13.7,15.8-31.65,12.55-49.04s-14.03-32.47-29.44-41.19c-9.12-5.16-17.29-11.78-24.26-19.68-11.57-13.11-28.05-20.29-44.98-20.29-5.85,0-11.74.86-17.52,2.62-22.5,6.87-38.9,26.25-41.97,49.57-6.08,46.25-45.89,81.13-92.6,81.13-24.57,0-47.79-9.52-65.39-26.81-17.58-17.27-27.52-40.27-27.99-64.76-.47-24.43-15.7-46.14-38.52-54.88-6.99-2.68-14.26-3.98-21.46-3.98-16.32,0-32.3,6.67-43.87,19.06-15.6,16.71-36.71,25.92-59.44,25.92-37.13,0-69.53-25.12-78.79-61.08C35.32,188.37,19.97,172.31,0,166.19V2.66s1919.99,0,1919.99,0v102.76c0,16.91,7.14,33.04,19.65,44.41.94.85,1.84,1.75,2.68,2.69,7.13,7.9,11.05,18.33,11.05,29.39,0,16.35-8.92,31.35-22.72,38.22-19.87,9.89-32.65,29.93-33.25,52.11-.65,24.33-10.67,47.16-28.22,64.27-17.57,17.13-40.71,26.57-65.14,26.57-41.54,0-78.49-27.92-89.86-67.89-5.03-17.68-17.88-32.08-34.88-39.07-7.33-3.02-15.1-4.52-22.83-4.52-10.19,0-20.34,2.59-29.44,7.72-1.49.84-3.02,1.62-4.55,2.33-19.99,9.31-33.27,28.83-34.58,50.84-1.3,21.98-18.23,39.2-38.54,39.2-4.69,0-9.25-.9-13.56-2.68-7.41-3.06-15.18-4.54-22.87-4.54-16.62,0-32.89,6.91-44.51,19.75-22.51,24.88-54.56,39.14-87.94,39.14-27.95,0-55.11-9.96-76.48-28.06-21.17-17.92-35.47-42.67-40.28-69.67-3.26-18.32-14.84-34.09-31.34-42.69-8.68-4.52-18.2-6.79-27.73-6.79-8.6,0-17.21,1.85-25.21,5.56-8.68,4.02-17.98,6.06-27.64,6.06-11.18,0-21.79-2.7-31.54-8.02-9.11-4.97-18.97-7.34-28.7-7.34-20.42,0-40.26,10.44-51.48,29.12-5.37,8.95-12.15,16.87-20.15,23.55-14.64,12.23-22.59,30.7-21.42,49.75.06,1,.09,2.02.09,3.02,0,23.14-17.32,41.96-38.62,41.96s-38.62-18.82-38.62-41.96c0-1,.03-2.01.09-3,1.18-19.05-6.78-37.53-21.43-49.77-7.41-6.19-13.79-13.46-18.96-21.62-11.03-17.41-30.19-27.88-50.67-27.88-.93,0-1.86.02-2.8.06-1.01.05-2.03.07-3.03.07-11.72,0-23.23-3.12-33.3-9.02-9.48-5.56-19.94-8.24-30.31-8.24-17.32,0-34.38,7.49-46.13,21.6-7.34,8.81-16.1,16.13-26.03,21.75-15.41,8.71-26.18,23.79-29.43,41.19s1.34,35.35,12.55,49.04c6.29,7.68,9.75,17.55,9.75,27.78,0,23.14-17.32,41.96-38.62,41.96ZM-.03,166.18s.01,0,.01,0c0,0,0,0-.01,0Z"/>
</svg>